<svg id="68ec546b-d03a-4498-aafa-63258f54c519" data-name="Layer 1" xmlns="http://www.w3.org/2000/svg" width="92.76mm" height="48.67mm" viewBox="0 0 262.93 137.96">
  <title>LogoViseuMuseuHistoria</title>
  <g>
    <g>
      <path d="M144,45.53h-4.42c-.91,0-1.28.46-1.53,1.27L133.1,64.13a66.46,66.46,0,0,0-1.38,7.32,55.1,55.1,0,0,0-1.22-7.37L125.58,46.8c-.26-.81-.62-1.27-1.48-1.27h-4.83c-.91,0-1.22.46-1,1.27l9.5,32a1.46,1.46,0,0,0,1.57,1.27h4.42a1.51,1.51,0,0,0,1.63-1.27l9.45-32C145.14,46,144.83,45.53,144,45.53Z" fill="#c24148"/>
      <path d="M154.86,45.53h-4.42c-.92,0-1.22.41-1.22,1.32V78.77c0,.91.3,1.32,1.22,1.32h4.42c.91,0,1.21-.41,1.21-1.32V46.85C156.07,45.94,155.77,45.53,154.86,45.53Z" fill="#c24148"/>
      <path d="M180.37,61l-8.85-3.15a2.82,2.82,0,0,1-2.08-2.74v-.76c0-2.5,1.68-3.66,5-3.66s4.93,1.16,4.93,3.66v1.16c0,.87.31,1.28,1.17,1.28h4.26c.92,0,1.28-.41,1.28-1.28V53.41c0-4.27-2.85-8.28-11.74-8.28s-11.54,4-11.54,8.28v3A7.25,7.25,0,0,0,167.4,63l7.89,2.95c2.28.87,4.31,1.68,4.31,3.76V71.3c0,2.49-2,3.66-5.38,3.66s-5.39-1.17-5.39-3.66V69c0-.91-.31-1.32-1.22-1.32h-4.27c-.86,0-1.22.41-1.22,1.32v3.2c0,4.27,3.1,8.29,12.15,8.29s12.1-4,12.1-8.29V68.3C186.37,64.54,183.83,62.2,180.37,61Z" fill="#c24148"/>
      <path d="M211.32,74.4H199.07V65h10.87c.92,0,1.34-.36,1.34-1.22v-3c0-.92-.42-1.22-1.34-1.22H199.07V51.23h11.74c.87,0,1.27-.36,1.27-1.28v-3.2c0-.91-.4-1.22-1.27-1.22H193.43c-.91,0-1.22.41-1.22,1.32V78.77c0,.91.31,1.32,1.22,1.32h17.89c.91,0,1.27-.36,1.27-1.27v-3.2C212.59,74.7,212.23,74.4,211.32,74.4Z" fill="#c24148"/>
      <path d="M241.46,45.53h-4.41c-.91,0-1.22.41-1.22,1.32V71c0,2.55-2.14,3.81-5.55,3.81s-5.43-1.26-5.43-3.81V46.85c0-.91-.35-1.32-1.22-1.32h-4.42c-.92,0-1.27.41-1.27,1.32V72.21c0,4.27,3.15,8.29,12.34,8.29s12.36-4,12.36-8.29V46.85C242.64,45.94,242.38,45.53,241.46,45.53Z" fill="#c24148"/>
    </g>
    <g>
      <path d="M118.51,117.94c-.18,0-.24-.1-.24-.3v-9.55c0-.2.08-.29.27-.29h3.12c2.55,0,3.4,1.07,3.4,2.29v5.55c0,1.23-.85,2.3-3.4,2.3Zm1.21-8.91v7.67h1.94c1.34,0,1.94-.49,1.94-1.3v-5.07c0-.8-.6-1.3-1.94-1.3Z" fill="#c24148"/>
      <path d="M130.52,107.8a.34.34,0,0,1,.36.28l2.89,9.58c.06.18,0,.28-.22.28h-.94c-.19,0-.28-.1-.33-.28l-.7-2.31h-3.15l-.68,2.31c0,.18-.14.28-.33.28h-.87c-.19,0-.27-.1-.21-.28l2.9-9.58a.34.34,0,0,1,.36-.28Zm-.09,3.67a16.9,16.9,0,0,1-.4-2.18c0,.13-.22,1.5-.42,2.15l-.85,2.74h2.51Z" fill="#c24148"/>
      <path d="M144.33,115.76c0,1.23-.73,2.3-3.3,2.3s-3.3-1.07-3.3-2.3V110c0-1.22.73-2.29,3.3-2.29s3.3,1.07,3.3,2.29v.74c0,.2-.08.29-.27.29h-.87c-.21,0-.28-.09-.28-.29v-.5c0-.8-.52-1.29-1.86-1.29s-1.85.49-1.85,1.29v5.31c0,.81.5,1.3,1.85,1.3s1.86-.49,1.86-1.3v-.7c0-.19.07-.28.28-.28h.87c.19,0,.27.09.27.28Z" fill="#c24148"/>
      <path d="M147.59,117.64c0,.21-.06.3-.27.3h-.91c-.19,0-.26-.09-.26-.3v-9.55c0-.2.07-.29.26-.29h.91c.21,0,.27.09.27.29Z" fill="#c24148"/>
      <path d="M150.2,117.94c-.18,0-.24-.1-.24-.3v-9.55c0-.2.08-.29.27-.29h3.12c2.55,0,3.4,1.07,3.4,2.29v5.55c0,1.23-.85,2.3-3.4,2.3Zm1.21-8.91v7.67h1.94c1.34,0,1.94-.49,1.94-1.3v-5.07c0-.8-.6-1.3-1.94-1.3Z" fill="#c24148"/>
      <path d="M162.12,107.8a.34.34,0,0,1,.36.28l2.89,9.58c.06.18,0,.28-.22.28h-.94a.3.3,0,0,1-.33-.28l-.7-2.31H160l-.69,2.31a.3.3,0,0,1-.32.28h-.87c-.19,0-.27-.1-.21-.28l2.9-9.58a.33.33,0,0,1,.35-.28Zm-.09,3.67a16.9,16.9,0,0,1-.4-2.18c0,.13-.23,1.5-.42,2.15l-.85,2.74h2.5Z" fill="#c24148"/>
      <path d="M167,117.94c-.18,0-.24-.1-.24-.3v-9.55c0-.2.08-.29.27-.29h3.12c2.55,0,3.4,1.07,3.4,2.29v5.55c0,1.23-.85,2.3-3.4,2.3Zm1.21-8.91v7.67h1.94c1.34,0,1.94-.49,1.94-1.3v-5.07c0-.8-.6-1.3-1.94-1.3Z" fill="#c24148"/>
      <path d="M176.14,117.94c-.19,0-.27-.09-.27-.3v-9.55c0-.2.08-.29.27-.29h5.1c.2,0,.29.07.29.28v.67c0,.21-.09.28-.29.28h-3.92v3H181c.21,0,.3.07.3.28V113c0,.2-.09.29-.3.29h-3.65v3.44h4.09c.19,0,.28.06.28.27v.69c0,.21-.09.28-.28.28Z" fill="#c24148"/>
    </g>
    <g>
      <g>
        <path d="M167,103c-.18,0-.24-.1-.24-.3V93.18c0-.21.08-.3.27-.3h3.12c2.55,0,3.4,1.07,3.4,2.29v5.55c0,1.23-.85,2.3-3.4,2.3Zm1.21-8.9v7.66h1.94c1.34,0,1.94-.49,1.94-1.29V95.41c0-.8-.6-1.29-1.94-1.29Z" fill="#c24148"/>
        <path d="M176.14,103c-.19,0-.27-.09-.27-.3V93.18c0-.21.08-.3.27-.3h5.1c.2,0,.29.07.29.28v.67c0,.21-.09.29-.29.29h-3.92v3H181c.21,0,.3.07.3.28v.64c0,.2-.09.29-.3.29h-3.65v3.44h4.09c.19,0,.28.06.28.27v.69c0,.21-.09.28-.28.28Z" fill="#c24148"/>
      </g>
      <path d="M187.21,97.1h3.88V93.18c0-.21.08-.3.27-.3h.93c.19,0,.26.09.26.3v9.54c0,.21-.07.3-.26.3h-.93c-.19,0-.27-.09-.27-.3V98.34h-3.88v4.38c0,.21-.06.3-.27.3H186c-.19,0-.26-.09-.26-.3V93.18c0-.21.07-.3.26-.3h.91c.21,0,.27.09.27.3Z" fill="#c24148"/>
      <path d="M196.45,102.72c0,.21-.06.3-.27.3h-.91c-.19,0-.27-.09-.27-.3V93.18c0-.21.08-.3.27-.3h.91c.21,0,.27.09.27.3Z" fill="#c24148"/>
      <path d="M203.79,95.25c0-.81-.49-1.27-1.81-1.27s-1.8.46-1.8,1.27v.3a1,1,0,0,0,.76,1l2.71,1a2.14,2.14,0,0,1,1.64,2v1.23c0,1.23-.85,2.3-3.34,2.3s-3.35-1.07-3.35-2.3V100c0-.21.09-.3.28-.3h.88c.19,0,.27.09.27.3v.67c0,.81.56,1.27,1.91,1.27s1.92-.46,1.92-1.27V100c0-.75-.67-1-1.25-1.22l-2.52-1a2,2,0,0,1-1.33-1.85v-.85c0-1.23.78-2.3,3.21-2.3s3.23,1.07,3.23,2.3v.65c0,.2-.07.29-.26.29h-.88c-.21,0-.27-.09-.27-.29Z" fill="#c24148"/>
      <path d="M212.81,92.88c.2,0,.29.07.29.28v.67c0,.21-.09.29-.29.29h-2.38v8.6c0,.21-.08.3-.27.3h-.93c-.19,0-.27-.09-.27-.3v-8.6h-2.38c-.21,0-.29-.08-.29-.29v-.67c0-.21.08-.28.29-.28Z" fill="#c24148"/>
      <path d="M224.81,99v3.71c0,.21-.06.3-.27.3h-.91c-.2,0-.27-.09-.27-.3V93.18c0-.21.07-.3.27-.3h3c2.56,0,3.38,1.07,3.38,2.29v1.56a2.08,2.08,0,0,1-1.74,2.09l1.79,3.9c.07.18-.06.3-.27.3h-.89c-.21,0-.24-.12-.33-.3L226.91,99h-2.1Zm0-4.89v3.65h1.85c1.34,0,1.94-.48,1.94-1.3V95.41c0-.8-.6-1.29-1.94-1.29Z" fill="#c24148"/>
      <path d="M233.67,102.72c0,.21-.06.3-.27.3h-.91c-.19,0-.27-.09-.27-.3V93.18c0-.21.08-.3.27-.3h.91c.21,0,.27.09.27.3Z" fill="#c24148"/>
      <path d="M239.37,92.88a.34.34,0,0,1,.36.28l2.89,9.58c.06.18,0,.28-.22.28h-.94a.3.3,0,0,1-.33-.28l-.7-2.31h-3.15l-.69,2.31a.3.3,0,0,1-.33.28h-.86c-.19,0-.27-.1-.21-.28l2.89-9.58a.34.34,0,0,1,.36-.28Zm-.09,3.67a16.6,16.6,0,0,1-.4-2.18c0,.13-.23,1.51-.42,2.15l-.85,2.74h2.5Z" fill="#c24148"/>
      <path d="M219.18,92.92l-.78,1.14c.83.15,1.22.59,1.22,1.23v5.32c0,.8-.6,1.29-1.94,1.29s-1.93-.49-1.93-1.29V95.29c0-.68.44-1.13,1.38-1.26l.7-1.27h-.15c-2.55,0-3.39,1.07-3.39,2.3v5.78c0,1.23.84,2.3,3.39,2.3s3.4-1.07,3.4-2.3V95.06A2.13,2.13,0,0,0,219.18,92.92Z" fill="#c24148"/>
    </g>
    <g>
      <path d="M127.76,102.57c0,.32-.1.45-.42.45h-1.53c-.32,0-.44-.13-.44-.45V97.85s-.29,1.08-.47,1.56l-.66,1.63a.58.58,0,0,1-.58.45h-1.3c-.3,0-.45-.18-.57-.45l-.82-1.9a11.36,11.36,0,0,1-.38-1.25v4.68c0,.32-.11.45-.42.45h-1.46c-.32,0-.44-.13-.44-.45V93.32c0-.31.12-.44.44-.44h1.46a.38.38,0,0,1,.39.24l2,4.56c.21.51.41,1.12.44,1.18a10,10,0,0,1,.43-1.15l2-4.62c.06-.15.18-.21.41-.21h1.53c.32,0,.42.13.42.44Z" fill="#c24148"/>
      <path d="M131.94,100.16c0,.68.61,1,1.34,1s1.36-.29,1.36-1V93.32c0-.31.12-.44.43-.44h1.61c.32,0,.42.13.42.44v7.27c0,1.28-1,2.55-3.82,2.55s-3.8-1.27-3.8-2.55V93.32c0-.31.12-.44.43-.44h1.61c.31,0,.42.13.42.44Z" fill="#c24148"/>
      <path d="M143.47,95.64c0-.69-.48-.94-1.16-.94s-1.18.25-1.18.94v.15a.68.68,0,0,0,.48.64l2.5.85A2.41,2.41,0,0,1,146,99.53v1.06c0,1.28-.91,2.55-3.72,2.55s-3.74-1.27-3.74-2.55v-1c0-.31.12-.45.43-.45h1.55c.32,0,.42.14.42.45v.67c0,.69.58.94,1.31.94s1.33-.25,1.33-.94V100c0-.53-.72-.79-1.28-1l-2.15-.8a2.22,2.22,0,0,1-1.39-2v-.86c0-1.28.78-2.55,3.54-2.55s3.59,1.27,3.59,2.55v.55c0,.31-.12.45-.43.45h-1.55c-.31,0-.42-.14-.42-.45Z" fill="#c24148"/>
      <path d="M147.83,103c-.32,0-.44-.13-.44-.45V93.32c0-.31.12-.44.44-.44h5.1c.31,0,.45.1.45.42v1.16c0,.31-.14.43-.45.43h-3.07v1.94h2.83c.31,0,.45.11.45.42v1.09c0,.31-.14.43-.45.43h-2.83V101h3.22c.31,0,.45.1.45.42v1.16c0,.31-.14.43-.45.43Z" fill="#c24148"/>
      <path d="M157.33,100.16c0,.68.61,1,1.34,1s1.36-.29,1.36-1V93.32c0-.31.12-.44.43-.44h1.61c.32,0,.42.13.42.44v7.27c0,1.28-1,2.55-3.82,2.55s-3.8-1.27-3.8-2.55V93.32c0-.31.12-.44.43-.44h1.61c.32,0,.42.13.42.44Z" fill="#c24148"/>
    </g>
  </g>
  <g>
    <path d="M79.07,92.38a1.46,1.46,0,0,0,.72-.19,1.48,1.48,0,0,0,.67-.88,1.43,1.43,0,0,0-.14-1.09,1.41,1.41,0,0,0-.88-.67,1.43,1.43,0,0,0-1.09.14,1.41,1.41,0,0,0-.68.87,1.45,1.45,0,0,0,1.4,1.82Z" fill="#e5baaf"/>
    <path d="M102.06,41.52,84.12,23.58A12.18,12.18,0,0,0,75.51,20H50.15a12.18,12.18,0,0,0-8.61,3.56L23.6,41.52A12.18,12.18,0,0,0,20,50.13V75.5a12.17,12.17,0,0,0,3.56,8.6L41.54,102a12.19,12.19,0,0,0,8.61,3.57H75.51A12.19,12.19,0,0,0,84.12,102L102.06,84.1a12.17,12.17,0,0,0,3.56-8.6V50.13A12.18,12.18,0,0,0,102.06,41.52ZM104.3,75.1a11.83,11.83,0,0,1-3.45,8.35L83.46,100.83a11.79,11.79,0,0,1-8.34,3.45H50.54a11.79,11.79,0,0,1-8.34-3.45L24.81,83.45a11.83,11.83,0,0,1-3.45-8.35V50.52a11.79,11.79,0,0,1,3.45-8.34L42.2,24.8a11.76,11.76,0,0,1,8.34-3.46H75.12a11.76,11.76,0,0,1,8.34,3.46l17.39,17.38a11.79,11.79,0,0,1,3.45,8.34Z" fill="#e5baaf"/>
    <path d="M62.83,93.85a1.44,1.44,0,1,0,1.44,1.44A1.43,1.43,0,0,0,62.83,93.85Z" fill="#e5baaf"/>
    <path d="M57.79,62.81a1.3,1.3,0,0,0,1.3,1.3h1.39v-2.6H59.09A1.3,1.3,0,0,0,57.79,62.81Z" fill="#e5baaf"/>
    <path d="M47.31,89.69a1.44,1.44,0,0,0-2.11,1.62,1.48,1.48,0,0,0,.67.88A1.44,1.44,0,0,0,48,90.56,1.4,1.4,0,0,0,47.31,89.69Z" fill="#e5baaf"/>
    <path d="M47,33.29a1.45,1.45,0,0,0-1.62,2.12,1.45,1.45,0,0,0,.88.67,1.57,1.57,0,0,0,.37.05,1.52,1.52,0,0,0,.72-.19,1.44,1.44,0,0,0,.53-2A1.4,1.4,0,0,0,47,33.29Z" fill="#e5baaf"/>
    <path d="M36,78.33a1.44,1.44,0,0,0-2.64.35,1.45,1.45,0,0,0,1,1.76,1.2,1.2,0,0,0,.38,0A1.43,1.43,0,0,0,36,78.33Z" fill="#e5baaf"/>
    <path d="M61.53,66.56a1.3,1.3,0,1,0,2.6,0v-1.4h-2.6Z" fill="#e5baaf"/>
    <path d="M35.43,45.33A1.44,1.44,0,1,0,34,47.82a1.45,1.45,0,0,0,.72.2,1.65,1.65,0,0,0,.38-.05,1.44,1.44,0,0,0,.35-2.64Z" fill="#e5baaf"/>
    <path d="M30.35,61.37a1.44,1.44,0,1,0,1.45,1.44A1.45,1.45,0,0,0,30.35,61.37Z" fill="#e5baaf"/>
    <path d="M62.83,31.78a1.45,1.45,0,1,0-1.44-1.44A1.45,1.45,0,0,0,62.83,31.78Z" fill="#e5baaf"/>
    <path d="M90.23,80.3a1.46,1.46,0,0,0,.72.19,1.44,1.44,0,0,0,1.25-.72,1.39,1.39,0,0,0,.15-1.09,1.43,1.43,0,0,0-1.77-1,1.43,1.43,0,0,0-.87.67h0A1.45,1.45,0,0,0,90.23,80.3Z" fill="#e5baaf"/>
    <path d="M90.58,48A1.65,1.65,0,0,0,91,48a1.44,1.44,0,1,0-.73-2.69A1.44,1.44,0,0,0,90.58,48Z" fill="#e5baaf"/>
    <path d="M95.31,61.37a1.44,1.44,0,1,0,1.44,1.44A1.45,1.45,0,0,0,95.31,61.37Z" fill="#e5baaf"/>
    <path d="M82.77,26.07a11.4,11.4,0,0,0-8.06-3.34H51a11.4,11.4,0,0,0-8.06,3.34l-16.8,16.8a11.4,11.4,0,0,0-3.34,8.06V74.69a11.41,11.41,0,0,0,3.34,8.07l16.8,16.8A11.44,11.44,0,0,0,51,102.9H74.71a11.44,11.44,0,0,0,8.06-3.34l16.8-16.8a11.41,11.41,0,0,0,3.34-8.07V50.93a11.4,11.4,0,0,0-3.34-8.06ZM95.31,66.29A3.5,3.5,0,0,1,93,65.43a1.62,1.62,0,0,0-.19-.17c-.41-.4-1-1-1.74-.68a20.2,20.2,0,0,1-8.48,1.71,28.63,28.63,0,0,1-8.14-1.61l-.14-.05a1.33,1.33,0,0,0-.34,0,1.36,1.36,0,0,0-1.26.84l0,.08a1.37,1.37,0,0,0,.67,1.36,1.42,1.42,0,0,0,.35.14l.11,0a28.45,28.45,0,0,1,7.86,2.67,20.25,20.25,0,0,1,6.49,5.72c.45.63,1.29.42,1.86.29l.22-.06a3.5,3.5,0,0,1,2.42.4,3.41,3.41,0,0,1,1.62,2.11,3.47,3.47,0,0,1-6.64,2l0-.07-.06-.18c-.16-.55-.4-1.38-1.17-1.46a20.11,20.11,0,0,1-8.2-2.76A28.36,28.36,0,0,1,72,70.25l-.1-.12a1.39,1.39,0,0,0-.27-.21,1.35,1.35,0,0,0-1-.13,1.21,1.21,0,0,0-.47.23l-.06.06a1.21,1.21,0,0,0-.23.47,1.35,1.35,0,0,0,.13,1,1.58,1.58,0,0,0,.24.3l.08.07a28.4,28.4,0,0,1,5.47,6.24,20.26,20.26,0,0,1,2.76,8.2c.08.77.91,1,1.47,1.18l.22.07a3.47,3.47,0,0,1,.63,6.3,3.53,3.53,0,0,1-2.64.35,3.45,3.45,0,0,1-2.11-1.62,3.5,3.5,0,0,1-.4-2.41l0-.24c.14-.56.35-1.41-.28-1.86a20.15,20.15,0,0,1-5.72-6.49A28.5,28.5,0,0,1,67,73.83l0-.15a1.3,1.3,0,0,0-.14-.32,1.34,1.34,0,0,0-1.35-.67l-.08,0a1.34,1.34,0,0,0-.78,1.64l0,.1a28.36,28.36,0,0,1,1.62,8.14,20.17,20.17,0,0,1-1.71,8.48c-.32.71.28,1.34.68,1.76l.16.16a3.48,3.48,0,1,1-6.09,2.3A3.46,3.46,0,0,1,60.22,93l.16-.18c.4-.42,1-1,.68-1.75a20.17,20.17,0,0,1-1.71-8.48A28.36,28.36,0,0,1,61,74.45l0-.14a1.27,1.27,0,0,0,.05-.34,1.37,1.37,0,0,0-.84-1.26l-.08,0H60a1.34,1.34,0,0,0-1.18.68,1.6,1.6,0,0,0-.15.35l0,.12A28.5,28.5,0,0,1,56,81.68a20.15,20.15,0,0,1-5.72,6.49c-.63.45-.42,1.3-.28,1.86,0,0,0,.22,0,.22a3.54,3.54,0,0,1-.4,2.43,3.45,3.45,0,0,1-2.11,1.62A3.53,3.53,0,0,1,44.85,94a3.48,3.48,0,0,1,.62-6.3l.24-.07c.55-.17,1.38-.41,1.46-1.18a20.26,20.26,0,0,1,2.76-8.2A28.36,28.36,0,0,1,55.39,72l.12-.1a1.34,1.34,0,0,0,.11-1.78L55.56,70a1.38,1.38,0,0,0-1.51-.1,2.1,2.1,0,0,0-.3.24l-.07.09a28.36,28.36,0,0,1-6.24,5.46,20.11,20.11,0,0,1-8.2,2.76c-.77.08-1,.92-1.17,1.47l-.07.22a3.47,3.47,0,0,1-6.65-2A3.41,3.41,0,0,1,33,76a3.48,3.48,0,0,1,2.41-.4l.24.06c.56.13,1.4.34,1.85-.29A20.25,20.25,0,0,1,44,69.69,28.45,28.45,0,0,1,51.82,67L52,67a1.79,1.79,0,0,0,.32-.13A1.37,1.37,0,0,0,53,65.5l0-.08a1.34,1.34,0,0,0-1.64-.78l-.1,0a28.63,28.63,0,0,1-8.14,1.61,20.2,20.2,0,0,1-8.48-1.71c-.71-.32-1.34.29-1.75.68l-.17.16a3.47,3.47,0,1,1-2.3-6.08,3.45,3.45,0,0,1,2.29.86l.18.17c.42.39,1,1,1.75.67a20.2,20.2,0,0,1,8.48-1.7A28.29,28.29,0,0,1,51.19,61l.14,0a1.32,1.32,0,0,0,.34,0,1.36,1.36,0,0,0,1.26-.84l0-.08a1.34,1.34,0,0,0-.67-1.35,1.11,1.11,0,0,0-.35-.14l-.11,0A28.13,28.13,0,0,1,44,55.93a20.15,20.15,0,0,1-6.49-5.72c-.45-.62-1.3-.42-1.86-.28l-.22,0a3.48,3.48,0,0,1-4-2.51,3.47,3.47,0,0,1,6.64-2l.08.24c.16.55.4,1.38,1.17,1.46a20.26,20.26,0,0,1,8.2,2.76,28.4,28.4,0,0,1,6.24,5.47l.1.11a1.35,1.35,0,0,0,1.31.35,1.58,1.58,0,0,0,.47-.23l.06-.07a1.37,1.37,0,0,0,.1-1.5,1.32,1.32,0,0,0-.24-.3l-.08-.08a28.14,28.14,0,0,1-5.47-6.24,20.26,20.26,0,0,1-2.76-8.2c-.08-.77-.92-1-1.47-1.17L45.48,38a3.53,3.53,0,0,1-1.9-1.56,3.47,3.47,0,0,1,3.91-5.09A3.41,3.41,0,0,1,49.6,33,3.47,3.47,0,0,1,50,35.38c0,.06,0,.2-.05.23-.13.55-.34,1.39.29,1.84A20.25,20.25,0,0,1,56,43.94a28.56,28.56,0,0,1,2.67,7.86l0,.15a1.23,1.23,0,0,0,.14.31,1.37,1.37,0,0,0,1.35.68l.08,0A1.34,1.34,0,0,0,61,51.27l0-.1A28.22,28.22,0,0,1,59.35,43a20.2,20.2,0,0,1,1.71-8.48c.32-.7-.28-1.33-.68-1.75l-.16-.17a3.48,3.48,0,1,1,6.09-2.29,3.43,3.43,0,0,1-.87,2.28l-.17.19c-.39.41-1,1-.67,1.74A20.2,20.2,0,0,1,66.31,43a28.22,28.22,0,0,1-1.62,8.14l0,.14a2,2,0,0,0,0,.35,1.35,1.35,0,0,0,.84,1.25l.08,0a1.38,1.38,0,0,0,1.35-.68,1.42,1.42,0,0,0,.15-.35l0-.11a28.56,28.56,0,0,1,2.67-7.86,20.25,20.25,0,0,1,5.72-6.49c.63-.45.42-1.29.28-1.85,0,0,0-.23,0-.23a3.52,3.52,0,0,1,.4-2.42,3.47,3.47,0,0,1,4.75-1.27,3.45,3.45,0,0,1,1.62,2.11A3.46,3.46,0,0,1,80.19,38l-.24.08c-.55.16-1.38.4-1.46,1.17a20.26,20.26,0,0,1-2.76,8.2,28.4,28.4,0,0,1-5.47,6.24l-.11.1a1.46,1.46,0,0,0-.21.28,1.35,1.35,0,0,0,.1,1.5l.06.07a1.58,1.58,0,0,0,.47.23,1.4,1.4,0,0,0,1-.14,1.26,1.26,0,0,0,.3-.24l.07-.08a28.4,28.4,0,0,1,6.24-5.47,20.26,20.26,0,0,1,8.2-2.76c.77-.08,1-.91,1.17-1.46l.07-.23a3.53,3.53,0,0,1,1.56-1.9,3.47,3.47,0,1,1,3.47,6,3.38,3.38,0,0,1-2.41.4l-.24,0c-.56-.14-1.4-.34-1.85.28a20.25,20.25,0,0,1-6.49,5.72,28.13,28.13,0,0,1-7.86,2.67l-.15,0a1.73,1.73,0,0,0-.31.14,1.34,1.34,0,0,0-.67,1.35l0,.08A1.36,1.36,0,0,0,74,61a1.81,1.81,0,0,0,.38,0l.1,0a28.29,28.29,0,0,1,8.14-1.61A20.2,20.2,0,0,1,91.09,61c.7.32,1.33-.28,1.75-.68L93,60.2a3.48,3.48,0,1,1,2.3,6.09Z" fill="#e5baaf"/>
    <path d="M78.35,35.94a1.41,1.41,0,0,0,.72.19,1.44,1.44,0,1,0-.38-2.84,1.41,1.41,0,0,0-.87.68,1.43,1.43,0,0,0-.15,1.09A1.46,1.46,0,0,0,78.35,35.94Z" fill="#e5baaf"/>
    <path d="M62.83,57.77a1.3,1.3,0,0,0-1.3,1.3v1.39h2.6V59.07A1.3,1.3,0,0,0,62.83,57.77Z" fill="#e5baaf"/>
    <path d="M66.57,61.51H65.18v2.6h1.39a1.3,1.3,0,1,0,0-2.6Z" fill="#e5baaf"/>
    <path d="M62.83,53.67A9.15,9.15,0,1,0,72,62.81,9.15,9.15,0,0,0,62.83,53.67Zm0,17.34a8.2,8.2,0,1,1,8.2-8.2A8.21,8.21,0,0,1,62.83,71Z" fill="#e5baaf"/>
    <rect x="61.53" y="61.51" width="2.6" height="2.6" fill="#e5baaf"/>
  </g>
</svg>
