<svg id="b3af8b12-2cf3-4fc2-a966-69cd04c45ea9" data-name="Layer 1" xmlns="http://www.w3.org/2000/svg" width="92.76mm" height="42.83mm" viewBox="0 0 262.93 121.41">
  <title>logoViseuPoloArqueologico</title>
  <g>
    <g>
      <g>
        <path d="M142.74,43.08h-4.47c-.92,0-1.29.46-1.54,1.28l-5,17.51a68.43,68.43,0,0,0-1.39,7.4,55.62,55.62,0,0,0-1.24-7.45l-5-17.46c-.26-.82-.62-1.28-1.49-1.28h-4.88c-.92,0-1.23.46-1,1.28l9.6,32.35A1.46,1.46,0,0,0,128,78h4.47a1.52,1.52,0,0,0,1.65-1.28l9.54-32.35C143.92,43.54,143.6,43.08,142.74,43.08Z" fill="#c49b27"/>
        <path d="M153.73,43.08h-4.46c-.93,0-1.23.41-1.23,1.33V76.66c0,.92.3,1.33,1.23,1.33h4.46c.93,0,1.24-.41,1.24-1.33V44.41C155,43.49,154.66,43.08,153.73,43.08Z" fill="#c49b27"/>
        <path d="M179.51,58.69l-8.94-3.19a2.85,2.85,0,0,1-2.11-2.77V52c0-2.51,1.7-3.69,5-3.69s5,1.18,5,3.69v1.18c0,.88.31,1.29,1.19,1.29H184c.92,0,1.29-.41,1.29-1.29V51c0-4.31-2.88-8.37-11.86-8.37S161.74,46.73,161.74,51v3a7.33,7.33,0,0,0,4.67,6.62l8,3c2.3.87,4.36,1.69,4.36,3.8v1.64c0,2.52-2,3.7-5.44,3.7s-5.45-1.18-5.45-3.7V66.8c0-.92-.31-1.34-1.23-1.34h-4.31c-.87,0-1.23.42-1.23,1.34V70c0,4.32,3.12,8.38,12.27,8.38s12.22-4.06,12.22-8.38v-4C185.57,62.29,183,59.92,179.51,58.69Z" fill="#c49b27"/>
        <path d="M210.79,72.24H198.4V62.69h11c.93,0,1.35-.35,1.35-1.23V58.38c0-.92-.42-1.23-1.35-1.23h-11V48.83h11.87c.88,0,1.28-.36,1.28-1.28V44.31c0-.92-.4-1.23-1.28-1.23H192.71c-.93,0-1.23.41-1.23,1.33V76.66c0,.92.3,1.33,1.23,1.33h18.08c.91,0,1.28-.35,1.28-1.28V73.48C212.07,72.55,211.7,72.24,210.79,72.24Z" fill="#c49b27"/>
        <path d="M241.24,43.08h-4.47c-.92,0-1.23.41-1.23,1.33V68.8c0,2.57-2.16,3.85-5.6,3.85s-5.49-1.28-5.49-3.85V44.41c0-.92-.36-1.33-1.23-1.33h-4.47c-.92,0-1.28.41-1.28,1.33V70c0,4.32,3.18,8.38,12.47,8.38s12.49-4.06,12.49-8.38V44.41C242.43,43.49,242.16,43.08,241.24,43.08Z" fill="#c49b27"/>
      </g>
      <g>
        <path d="M118.39,97.47V101c0,.21-.06.3-.27.3h-.92c-.19,0-.27-.09-.27-.3V91.34c0-.22.08-.31.27-.31h3.06c2.59,0,3.42,1.09,3.42,2.33v1.79c0,1.24-.83,2.32-3.42,2.32Zm0-5.18v3.93h1.87c1.36,0,2-.5,2-1.31V93.6c0-.82-.6-1.31-2-1.31Z" fill="#c49b27"/>
        <path d="M124.86,93.23c0-1.23.84-2.32,3.42-2.32s3.44,1.09,3.44,2.32v5.85c0,1.24-.85,2.32-3.44,2.32s-3.42-1.08-3.42-2.32Zm5.38.25c0-.82-.6-1.32-2-1.32s-1.94.5-1.94,1.32v5.36c0,.82.6,1.31,1.94,1.31s2-.49,2-1.31Z" fill="#c49b27"/>
        <path d="M135,100h3.86c.2,0,.29.06.29.27v.7c0,.21-.09.28-.29.28h-5.09c-.17,0-.24-.1-.24-.3V91.34c0-.22.07-.31.28-.31h.92c.2,0,.27.09.27.31Z" fill="#c49b27"/>
        <path d="M139.92,93.23c0-1.23.84-2.32,3.42-2.32s3.44,1.09,3.44,2.32v5.85c0,1.24-.85,2.32-3.44,2.32s-3.42-1.08-3.42-2.32Zm5.38.25c0-.82-.6-1.32-2-1.32s-2,.5-2,1.32v5.36c0,.82.61,1.31,2,1.31s2-.49,2-1.31Z" fill="#c49b27"/>
        <path d="M155.14,91.49l2.73,9.34c.09.29,0,.45-.33.45h-1.68c-.31,0-.45-.16-.52-.45l-.4-1.45h-2.5l-.39,1.45a.49.49,0,0,1-.53.45H150c-.32,0-.42-.16-.33-.45l2.73-9.34c.09-.31.24-.46.55-.46h1.63A.53.53,0,0,1,155.14,91.49Zm-.95,5.12a31.83,31.83,0,0,1-.47-3.15c0,.21-.27,2.28-.51,3.15l-.23.82h1.42Z" fill="#c49b27"/>
        <path d="M164.37,97.12l1.47,3.71c.11.27-.09.45-.42.45h-1.63c-.28,0-.34-.24-.43-.45L162,97.5H160.9v3.33c0,.32-.11.45-.42.45h-1.63c-.32,0-.44-.13-.44-.45V91.49c0-.32.12-.46.44-.46h3.25c2.84,0,3.83,1.29,3.83,2.58v1.31A2.32,2.32,0,0,1,164.37,97.12Zm-3.47-4.05v2.4h1.2c.74,0,1.38-.29,1.38-1v-.44c0-.69-.64-1-1.38-1Z" fill="#c49b27"/>
        <path d="M174.54,98.83a2.43,2.43,0,0,1-2,2.35l1.43,1.26c.24.22.26.43.06.62l-.81.88a.42.42,0,0,1-.62,0l-2.85-2.63c-2.09-.25-2.86-1.37-2.86-2.51V93.49c0-1.3,1-2.58,3.84-2.58s3.86,1.28,3.86,2.58Zm-5.22-.38c0,.69.62,1,1.36,1s1.37-.29,1.37-1V93.87c0-.7-.63-1-1.37-1s-1.36.28-1.36,1Z" fill="#c49b27"/>
        <path d="M178.08,98.39c0,.69.62,1,1.36,1s1.37-.29,1.37-1v-6.9c0-.32.12-.46.44-.46h1.62c.32,0,.43.14.43.46v7.34c0,1.29-1,2.57-3.86,2.57s-3.85-1.28-3.85-2.57V91.49c0-.32.12-.46.44-.46h1.63c.32,0,.42.14.42.46Z" fill="#c49b27"/>
        <path d="M184.94,101.28c-.32,0-.44-.13-.44-.45V91.49c0-.32.12-.46.44-.46h5.15c.32,0,.46.11.46.43v1.17c0,.32-.14.44-.46.44H187v2h2.86c.32,0,.45.1.45.42v1.1c0,.32-.13.44-.45.44H187v2.26h3.25c.32,0,.46.1.46.42v1.18c0,.31-.14.43-.46.43Z" fill="#c49b27"/>
        <path d="M191.45,93.49c0-1.3,1-2.58,3.84-2.58s3.86,1.28,3.86,2.58v5.34c0,1.29-1,2.57-3.86,2.57s-3.84-1.28-3.84-2.57Zm5.22.44c0-.7-.64-1-1.38-1s-1.35.28-1.35,1v4.46c0,.69.61,1,1.35,1s1.38-.29,1.38-1Z" fill="#c49b27"/>
        <path d="M202.77,99.25h2.95c.32,0,.46.1.46.42v1.18c0,.31-.14.43-.46.43h-5.06c-.27,0-.38-.15-.38-.45V91.49c0-.32.12-.46.44-.46h1.63c.31,0,.42.14.42.46Z" fill="#c49b27"/>
        <path d="M222.23,95.71c.32,0,.45.1.45.42v2.7c0,1.29-.87,2.57-3.71,2.57s-3.71-1.28-3.71-2.57V93.49c0-1.3.88-2.58,3.71-2.58s3.71,1.28,3.71,2.58V94c0,.32-.1.46-.42.46h-1.55c-.32,0-.44-.14-.44-.46v-.1c0-.7-.53-1-1.27-1s-1.25.28-1.25,1v4.46c0,.69.51,1,1.25,1s1.27-.29,1.27-1v-.65H219c-.31,0-.45-.12-.45-.44V96.13c0-.32.14-.42.45-.42Z" fill="#c49b27"/>
        <path d="M226.22,100.83c0,.32-.1.45-.42.45h-1.63c-.31,0-.43-.13-.43-.45V91.49c0-.32.12-.46.43-.46h1.63c.32,0,.42.14.42.46Z" fill="#c49b27"/>
        <path d="M234.77,98.83c0,1.29-.88,2.57-3.71,2.57s-3.71-1.28-3.71-2.57V93.49c0-1.3.88-2.58,3.71-2.58s3.71,1.28,3.71,2.58v.69c0,.32-.11.46-.42.46h-1.56c-.31,0-.43-.14-.43-.46v-.25c0-.7-.53-1-1.27-1s-1.25.28-1.25,1v4.46c0,.69.51,1,1.25,1s1.27-.29,1.27-1v-.48c0-.32.12-.45.43-.45h1.56c.31,0,.42.13.42.45Z" fill="#c49b27"/>
        <path d="M235.52,93.49c0-1.3,1-2.58,3.85-2.58s3.86,1.28,3.86,2.58v5.34c0,1.29-1,2.57-3.86,2.57s-3.85-1.28-3.85-2.57Zm5.22.44c0-.7-.64-1-1.37-1s-1.36.28-1.36,1v4.46c0,.69.62,1,1.36,1s1.37-.29,1.37-1Z" fill="#c49b27"/>
        <path d="M212.76,91.33l-1.29,1.91a.84.84,0,0,1,.33.69v4.46c0,.69-.63,1-1.37,1s-1.36-.29-1.36-1V93.93a.86.86,0,0,1,.47-.79l1-2.22h-.1c-2.84,0-3.85,1.28-3.85,2.58v5.34c0,1.29,1,2.57,3.85,2.57s3.86-1.28,3.86-2.57V93.49A2.32,2.32,0,0,0,212.76,91.33Z" fill="#c49b27"/>
      </g>
    </g>
    <g>
      <path d="M100.39,39.18,82.27,21.05a12.34,12.34,0,0,0-8.7-3.6H47.94a12.3,12.3,0,0,0-8.69,3.6L21.12,39.18a12.3,12.3,0,0,0-3.6,8.69V73.5a12.32,12.32,0,0,0,3.6,8.7l18.13,18.12a12.26,12.26,0,0,0,8.69,3.6H73.57a12.3,12.3,0,0,0,8.7-3.6L100.39,82.2a12.28,12.28,0,0,0,3.6-8.7V47.87A12.26,12.26,0,0,0,100.39,39.18Zm2.27,33.93a12,12,0,0,1-3.49,8.43L81.6,99.1a11.92,11.92,0,0,1-8.43,3.49H48.34a12,12,0,0,1-8.43-3.49L22.35,81.54a11.91,11.91,0,0,1-3.49-8.43V48.27a11.91,11.91,0,0,1,3.49-8.43L39.91,22.28a11.91,11.91,0,0,1,8.43-3.49H73.18a11.87,11.87,0,0,1,8.42,3.49L99.17,39.84a12,12,0,0,1,3.49,8.43Z" fill="#e8d6a8"/>
      <g>
        <path d="M57.58,80.33a3.95,3.95,0,0,0,4,.44c.23-.13.23-.3.23-.61v-.75c0-.27,0-.47,0-.68a.75.75,0,0,0,0-.11l.12,0a.33.33,0,0,0,.34-.33c0-.13-.08-.34-.4-.34l-.55,0h-.18l-.68,0a.35.35,0,0,0-.4.34.34.34,0,0,0,.35.33h.15l.07,0a2.48,2.48,0,0,1,0,.39v1.13a1.76,1.76,0,0,1-.62.1,2.19,2.19,0,0,1-1.56-.64A2.47,2.47,0,0,1,57.84,78a1.64,1.64,0,0,1,1.81-1.85,1.79,1.79,0,0,1,1.33.4.81.81,0,0,1,.1.33c0,.33.26.35.33.35s.35,0,.35-.43a7.21,7.21,0,0,1,0-.81.76.76,0,0,0,0-.14.37.37,0,0,0-.36-.35A2.34,2.34,0,0,1,61,75.4a6.45,6.45,0,0,0-1.09-.12,3.58,3.58,0,0,0-1.93.47,2.83,2.83,0,0,0-1.26,2.45A2.89,2.89,0,0,0,57.58,80.33Z" fill="#e8d6a8"/>
        <path d="M74.34,92.44l-.55,0h-.18l-.68,0a.35.35,0,0,0-.4.35.34.34,0,0,0,.34.33H73s0,0,.06,0a2.68,2.68,0,0,1,0,.4l0,1.12a1.59,1.59,0,0,1-.62.1A2.17,2.17,0,0,1,71,94.13a2.47,2.47,0,0,1-.62-1.65A1.92,1.92,0,0,1,70.88,91a1.88,1.88,0,0,1,1.26-.38,1.78,1.78,0,0,1,1.33.41,1,1,0,0,1,.1.32c0,.32.24.36.33.36s.35,0,.35-.43a5.46,5.46,0,0,1,0-.82c0-.06,0-.1,0-.13a.35.35,0,0,0-.36-.35,3.43,3.43,0,0,1-.5-.06,5.47,5.47,0,0,0-1.08-.12,3.62,3.62,0,0,0-1.94.46,2.86,2.86,0,0,0-1.25,2.45,2.91,2.91,0,0,0,.89,2.13,3.92,3.92,0,0,0,4,.45c.24-.13.24-.3.24-.61v-.75c0-.28,0-.47,0-.68a.84.84,0,0,1,0-.12h.12a.34.34,0,0,0,.34-.33A.36.36,0,0,0,74.34,92.44Z" fill="#e8d6a8"/>
        <path d="M68.6,94.73a2.08,2.08,0,0,0-.25,0,.45.45,0,0,1,0-.14c0-.26,0-.8,0-1.42V92c0-1,0-1.22,0-1.43a.8.8,0,0,1,0-.11l.11,0a.34.34,0,0,0,.35-.33.36.36,0,0,0-.4-.34l-.56,0h-.19l-.58,0a.35.35,0,0,0-.4.34.33.33,0,0,0,.34.33h.13a.73.73,0,0,1,0,.13c0,.2,0,.39,0,1.42v1.18c0,.62,0,1.16,0,1.42,0,.07,0,.11,0,.13H67a.34.34,0,0,0-.34.33.35.35,0,0,0,.4.35l.55,0h.17l.76,0a.35.35,0,0,0,.39-.35A.34.34,0,0,0,68.6,94.73Z" fill="#e8d6a8"/>
        <path d="M57.31,68.93l.22,0a.32.32,0,0,1,0,.11c0,.21,0,.4,0,1.43v1.18c0,.62,0,1.16,0,1.42a.35.35,0,0,1,0,.13h-.08a.34.34,0,0,0-.35.33.35.35,0,0,0,.4.34h.65l.4,0,.27,0H59a1.81,1.81,0,0,0,2-1.75,1.72,1.72,0,0,0-1-1.51,1.63,1.63,0,0,0,.43-1.11c0-.44-.34-1.29-1.62-1.29h-.81l-.68,0a.36.36,0,0,0-.4.34A.33.33,0,0,0,57.31,68.93Zm1.36.1h.11c.57,0,.62.66.62.86a.83.83,0,0,1-.17.49c-.06.07-.07.07-.39.07h-.17Zm0,2.18h.24a.8.8,0,0,1,.43.15,1.33,1.33,0,0,1,.52,1.1.61.61,0,0,1-.66.66,1.42,1.42,0,0,1-.5-.08,2.06,2.06,0,0,1,0-.27V71.21Z" fill="#e8d6a8"/>
        <path d="M68.27,86.75a1.76,1.76,0,0,0-1-1.52,1.67,1.67,0,0,0,.43-1.1c0-.45-.34-1.3-1.63-1.3l-.49,0H65.3l-.67,0a.35.35,0,0,0-.4.35.34.34,0,0,0,.34.33h.21a.69.69,0,0,1,0,.12c0,.2,0,.39,0,1.43v1.18c0,.62,0,1.15,0,1.41,0,.07,0,.11,0,.14h-.09a.33.33,0,0,0-.34.33.35.35,0,0,0,.4.34h.65s.21,0,.4,0h.49A1.82,1.82,0,0,0,68.27,86.75ZM65.93,83.6H66c.57,0,.61.66.61.86a.78.78,0,0,1-.16.49c-.07.07-.07.08-.4.08h-.16Zm.53,4.11a1.43,1.43,0,0,1-.5-.09,2.06,2.06,0,0,1,0-.27V85.79h.24a.75.75,0,0,1,.42.14,1.32,1.32,0,0,1,.53,1.1A.62.62,0,0,1,66.46,87.71Z" fill="#e8d6a8"/>
        <path d="M54.51,82.85H54.2l-.68,0a.36.36,0,0,0-.4.35.34.34,0,0,0,.35.33h.21a.45.45,0,0,1,0,.12c0,.2,0,.39,0,1.43v1.18a12.74,12.74,0,0,1,0,1.41.41.41,0,0,1,0,.14h-.08a.33.33,0,0,0-.35.33.36.36,0,0,0,.4.34h.66s.2,0,.39,0h.5a1.81,1.81,0,0,0,2-1.75,1.74,1.74,0,0,0-1-1.52,1.62,1.62,0,0,0,.44-1.1c0-.45-.35-1.3-1.63-1.3ZM56,87a.62.62,0,0,1-.66.67,1.43,1.43,0,0,1-.5-.09,1.31,1.31,0,0,1,0-.27c0-.09,0-1,0-1.43v-.13h.24a.78.78,0,0,1,.43.14A1.34,1.34,0,0,1,56,87Zm-.46-2.58a.78.78,0,0,1-.17.49c-.06.07-.07.08-.39.08h-.17V83.6h.11C55.5,83.6,55.55,84.26,55.55,84.46Z" fill="#e8d6a8"/>
        <path d="M67.47,68.93l.21,0a.66.66,0,0,1,0,.11c0,.21,0,.4,0,1.43v1.18c0,.62,0,1.16,0,1.42a.63.63,0,0,1,0,.13h-.08a.32.32,0,0,0-.34.33.34.34,0,0,0,.39.34h.66l.4,0,.26,0h.23a1.82,1.82,0,0,0,2-1.75,1.74,1.74,0,0,0-1-1.51,1.67,1.67,0,0,0,.43-1.11c0-.44-.34-1.29-1.63-1.29H68.2l-.68,0a.35.35,0,0,0-.39.34A.33.33,0,0,0,67.47,68.93Zm1.35.1h.12c.57,0,.61.66.61.86a.75.75,0,0,1-.17.49c-.06.07-.06.07-.39.07h-.17Zm0,2.18h.25a.8.8,0,0,1,.42.15,1.33,1.33,0,0,1,.52,1.1.61.61,0,0,1-.65.66,1.42,1.42,0,0,1-.5-.08,1.09,1.09,0,0,1,0-.27c0-.09,0-1,0-1.43Z" fill="#e8d6a8"/>
        <path d="M60.6,73.56s0,.34.41.34h1.28a.35.35,0,0,0,.39-.34.33.33,0,0,0-.35-.33h0a2.08,2.08,0,0,1,.07-.26l.35-1h1.13l.54,1.42a.3.3,0,0,0-.08.2c0,.32.34.33.49.34h1.06c.41,0,.42-.3.42-.34a.33.33,0,0,0-.36-.33.45.45,0,0,1-.18,0q-.18,0-.39-.57c-.29-.72-.9-2.3-1.26-3.26l-.3-.78c-.08-.2-.17-.42-.42-.42s-.34.23-.42.45l-1.52,4.16c-.13.35-.21.43-.33.44H61A.34.34,0,0,0,60.6,73.56Zm2.67-3.27.29.82H63Z" fill="#e8d6a8"/>
        <path d="M74.88,74a2.93,2.93,0,0,0,3-3,2.75,2.75,0,0,0-2.93-2.8A2.89,2.89,0,0,0,72,71.08,2.78,2.78,0,0,0,74.88,74Zm0-5c.84,0,1.75.69,1.75,2.19,0,1.86-1.2,2-1.56,2-1.1,0-1.86-.94-1.86-2.28S73.83,69,74.88,69Z" fill="#e8d6a8"/>
        <path d="M53.82,68.93H54a.32.32,0,0,1,0,.13c0,.21,0,.4,0,1.43v1.18a13,13,0,0,1,0,1.42.35.35,0,0,1,0,.13h-.08a.34.34,0,0,0-.35.33.35.35,0,0,0,.4.34h1.48a.36.36,0,0,0,.4-.34.34.34,0,0,0-.35-.33,2.07,2.07,0,0,0-.25,0s0,0,0-.14c0-.26,0-.8,0-1.42V70.49c0-1,0-1.22,0-1.43a.63.63,0,0,1,0-.11l.12,0a.33.33,0,0,0,.34-.33.35.35,0,0,0-.4-.34l-.55,0h-.2l-.58,0a.36.36,0,0,0-.4.34A.33.33,0,0,0,53.82,68.93Z" fill="#e8d6a8"/>
        <path d="M78.49,85.94l0,0a2.18,2.18,0,0,0,.71-1.57,1.46,1.46,0,0,0-.58-1.15,2.39,2.39,0,0,0-1.39-.35l-.58,0h-.29l-.68,0a.36.36,0,0,0-.4.35.34.34,0,0,0,.34.33h.21s0,0,0,.12,0,.39,0,1.43v1.18c0,.62,0,1.15,0,1.41a1.13,1.13,0,0,1,0,.14H75.7a.33.33,0,0,0-.35.33.36.36,0,0,0,.4.34l.63,0h.07l.75,0a.35.35,0,0,0,.4-.34.33.33,0,0,0-.34-.33,2.09,2.09,0,0,0-.25,0s0,0,0-.13c0-.26,0-.76,0-1.35h.49l.19.26c.14.2.32.44.49.66l.08.11a3.27,3.27,0,0,0,.92,1,1.63,1.63,0,0,0,.85.16h.48c.4,0,.45-.24.45-.34a.34.34,0,0,0-.35-.33l-.22,0a1,1,0,0,1-.65-.39C79.34,87,79,86.53,78.49,85.94Zm-.74-.47a1.45,1.45,0,0,1-.8,0V83.63h.21c.76,0,.87.66.87,1.05A.93.93,0,0,1,77.75,85.47Z" fill="#e8d6a8"/>
        <path d="M72,82.74a2.9,2.9,0,0,0-2.93,2.91A2.78,2.78,0,0,0,72,88.57a2.93,2.93,0,0,0,3-3A2.74,2.74,0,0,0,72,82.74Zm.14,5c-1.09,0-1.86-.94-1.86-2.28s.63-1.91,1.67-1.91c.84,0,1.75.68,1.75,2.18C73.71,87.59,72.52,87.74,72.15,87.74Z" fill="#e8d6a8"/>
        <path d="M77.93,89.8A2.9,2.9,0,0,0,75,92.71a2.79,2.79,0,0,0,2.89,2.92,2.93,2.93,0,0,0,3-3A2.74,2.74,0,0,0,77.93,89.8Zm.14,5c-1.09,0-1.86-.94-1.86-2.28s.63-1.92,1.67-1.92c.84,0,1.75.69,1.75,2.19C79.63,94.65,78.43,94.8,78.07,94.8Z" fill="#e8d6a8"/>
        <path d="M64.08,78.19A2.78,2.78,0,0,0,67,81.11a2.93,2.93,0,0,0,3-3A2.74,2.74,0,0,0,67,75.28,2.9,2.9,0,0,0,64.08,78.19ZM67,76.09c.84,0,1.75.68,1.75,2.18,0,1.87-1.2,2-1.56,2-1.09,0-1.86-.94-1.86-2.28S65.92,76.09,67,76.09Z" fill="#e8d6a8"/>
        <path d="M78.32,68.93h.13a1.11,1.11,0,0,1,0,.13c0,.21,0,.4,0,1.43v1.18c0,.62,0,1.16,0,1.42,0,.06,0,.11,0,.13h-.09a.34.34,0,0,0-.34.33c0,.13.08.34.4.34h1.48a.35.35,0,0,0,.39-.34.34.34,0,0,0-.34-.33,2.08,2.08,0,0,0-.25,0,.59.59,0,0,1,0-.14c0-.26,0-.8,0-1.42V70.49c0-1,0-1.22,0-1.43a.63.63,0,0,1,0-.11l.11,0a.33.33,0,0,0,.34-.33.35.35,0,0,0-.39-.34l-.56,0H79l-.58,0a.35.35,0,0,0-.4.34A.33.33,0,0,0,78.32,68.93Z" fill="#e8d6a8"/>
        <path d="M42.5,83.51h.21a.69.69,0,0,1,0,.12c0,.2,0,.39,0,1.43v1.18c0,.62,0,1.15,0,1.41,0,.07,0,.11,0,.14H42.6a.33.33,0,0,0-.34.33.35.35,0,0,0,.4.34h.82l.37,0c.29,0,.66,0,.95,0A3,3,0,0,0,47,87.68a3.06,3.06,0,0,0,.8-2.09,2.65,2.65,0,0,0-.73-1.9,3.65,3.65,0,0,0-2.77-.86h-.12l-.76,0h-.23l-.67,0a.35.35,0,0,0-.4.35A.34.34,0,0,0,42.5,83.51Zm1.39.14h.23a2.44,2.44,0,0,1,2,.67,2.14,2.14,0,0,1,.56,1.49,2,2,0,0,1-.45,1.39,1.93,1.93,0,0,1-1.39.54,2,2,0,0,1-.89-.12h0a2,2,0,0,1,0-.38c0-.13,0-.74,0-1.44V85C43.88,84.52,43.88,84,43.89,83.65Z" fill="#e8d6a8"/>
        <path d="M42,90.56a.65.65,0,0,1,.18,0c.14,0,.18,0,.29.34l1.66,4.16c.14.34.22.55.49.55s.32-.18.44-.44l.11-.24c.15-.33.45-1,.87-2l.17-.42c.28-.66.52-1.24.58-1.4A1.39,1.39,0,0,1,47,90.6a.31.31,0,0,1,.17,0,.34.34,0,0,0,.37-.33.35.35,0,0,0-.4-.34l-.44,0h-.23l-.51,0c-.41,0-.44.26-.44.34a.33.33,0,0,0,.36.33h0a.64.64,0,0,0,0,.07c-.11.36-.71,1.93-1.15,3l-1-2.76c0-.1-.09-.23-.12-.32a.34.34,0,0,0,.37-.33c0-.13-.06-.34-.47-.34l-.5,0h-.28l-.63,0c-.4,0-.46.21-.46.34A.33.33,0,0,0,42,90.56Z" fill="#e8d6a8"/>
        <path d="M62.12,94.86a.38.38,0,0,1-.18,0q-.18,0-.39-.57c-.3-.74-.94-2.41-1.3-3.36-.14-.35-.23-.61-.26-.68s-.17-.42-.42-.42-.34.23-.42.45l-1.52,4.16c-.12.35-.21.43-.32.44h-.16a.34.34,0,0,0-.35.33s0,.35.41.35l.62,0h.3l.36,0a.35.35,0,0,0,.39-.35.33.33,0,0,0-.35-.33h0a2.08,2.08,0,0,1,.07-.26l.36-1h1.12L60.59,95a.3.3,0,0,0-.07.21c0,.31.33.32.48.33.46,0,1,0,1.06,0,.41,0,.42-.31.42-.35A.33.33,0,0,0,62.12,94.86ZM59.2,92.74l.27-.82.29.82Z" fill="#e8d6a8"/>
        <path d="M97.88,40.54l-17-17a11.52,11.52,0,0,0-8.15-3.37h-24a11.51,11.51,0,0,0-8.14,3.37l-17,17a11.52,11.52,0,0,0-3.37,8.15v24a11.52,11.52,0,0,0,3.37,8.15l17,17a11.52,11.52,0,0,0,8.14,3.38h24a11.53,11.53,0,0,0,8.15-3.38l17-17a11.53,11.53,0,0,0,3.38-8.15v-24A11.53,11.53,0,0,0,97.88,40.54Zm-40.3-12,8.92,5.06L61.44,32a2.15,2.15,0,0,0-2,.31l-1.7,1.26-5.31,1.57-1.92-.86ZM94.46,46.76H39.73a1.26,1.26,0,0,0,0,2.52H92.15v.85c-2.84.92-5.71,3.1-6.25,6.74h-.69a1.61,1.61,0,0,0-1.61,1.61V60.2H42.49a1.26,1.26,0,1,0,0,2.51H82V94.32l-2,2a11,11,0,0,1-7.81,3.23h-23a11,11,0,0,1-7.81-3.23l-1-1V63.37A1.61,1.61,0,0,0,39,61.77V59.61A1.62,1.62,0,0,0,37.4,58H37a6.21,6.21,0,0,0-4.83-4.92V51.4a1.61,1.61,0,0,0-1.61-1.61H30v-6h.23A1.61,1.61,0,0,0,31.63,43a1.56,1.56,0,0,0,0-1.59c-.64-1.19-1.93-4.17.1-6.2A4.08,4.08,0,0,1,36,34.08a3.23,3.23,0,0,1,2.08,2.86,1.62,1.62,0,0,0,.93,1.3,1.59,1.59,0,0,0,1.59-.14l4.86-3.36,6.15,2.77.08,0a2.15,2.15,0,0,0,1.35,0L58.53,36a2.35,2.35,0,0,0,.67-.34l1.6-1.2,10.57,3.25a2.1,2.1,0,0,0,.7.12h.22l.11,0,5-1L92.86,41H39.73a1.26,1.26,0,1,0,0,2.51H94.46Z" fill="#e8d6a8"/>
        <path d="M42.5,68.93l.21,0a.42.42,0,0,1,0,.11c0,.21,0,.4,0,1.43v1.18c0,.62,0,1.16,0,1.42,0,.06,0,.11,0,.13H42.6a.34.34,0,0,0-.34.33c0,.13.08.34.4.34h.65l.17,0,.37,0c.29,0,.66,0,.95,0A3,3,0,0,0,47,73.1a3,3,0,0,0,.8-2.08,2.7,2.7,0,0,0-.73-1.91,3.65,3.65,0,0,0-2.77-.85h-.12l-.76,0h-.23l-.67,0a.35.35,0,0,0-.4.34A.33.33,0,0,0,42.5,68.93Zm1.39.15h.23a2.47,2.47,0,0,1,2,.66,2.14,2.14,0,0,1,.56,1.49,2,2,0,0,1-.45,1.4,2,2,0,0,1-1.39.54,1.94,1.94,0,0,1-.89-.12h0a2.14,2.14,0,0,1,0-.38c0-.13,0-.74,0-1.44v-.83C43.88,69.94,43.88,69.38,43.89,69.08Z" fill="#e8d6a8"/>
        <path d="M55.84,92.14,55.65,92c-.63-.5-.7-.67-.7-.9a.48.48,0,0,1,.53-.49c.45,0,.57.17.58.2a1.2,1.2,0,0,1,.06.24.34.34,0,0,0,.34.34c.08,0,.34,0,.34-.45s0-.55,0-.64v-.07a.33.33,0,0,0-.35-.33.55.55,0,0,1-.17,0,2.93,2.93,0,0,0-.69-.07,1.51,1.51,0,0,0-1.68,1.49,2.12,2.12,0,0,0,1,1.68l.3.25c.57.46.67.66.67,1a.61.61,0,0,1-.67.6c-.23,0-.63-.06-.71-.45a.68.68,0,0,1,0-.19.33.33,0,0,0-.33-.36c-.07,0-.31,0-.34.38v.07c0,.14,0,.37,0,.65a.49.49,0,0,0,.26.52h0a2.29,2.29,0,0,0,1,.21,2.05,2.05,0,0,0,1.18-.34A1.67,1.67,0,0,0,56.93,94,2.18,2.18,0,0,0,55.84,92.14Z" fill="#e8d6a8"/>
        <path d="M65.86,94.07c-.08,0-.29,0-.34.34s-.09.25-.13.26a1.57,1.57,0,0,1-.53.06,1.09,1.09,0,0,1-.46,0,1,1,0,0,1,0-.23c0-.1,0-.52,0-.83V93l.69,0c.08,0,.1,0,.1,0a.53.53,0,0,1,0,.13.34.34,0,0,0,.34.35s.33,0,.33-.41c0,0,0-.28,0-.41s0-.21,0-.27a.72.72,0,0,0,0-.13A.32.32,0,0,0,65.6,92a.38.38,0,0,0-.29.16l-.15,0h-.79v-1.4l.64,0a.7.7,0,0,1,.24,0,.39.39,0,0,1,0,.13.34.34,0,1,0,.67.06c0-.06,0-.21,0-.33v-.13a1.46,1.46,0,0,1,0-.2.68.68,0,0,0,0-.15.32.32,0,0,0-.31-.35.3.3,0,0,0-.17.05l-.23,0H63a.34.34,0,0,0-.39.34.33.33,0,0,0,.34.33l.21,0a.42.42,0,0,1,0,.11c0,.21,0,.39,0,1.43v1.18c0,.62,0,1.16,0,1.41a.78.78,0,0,1,0,.14h-.08a.33.33,0,0,0-.34.33.34.34,0,0,0,.39.34h.66l.51,0h1.14c.27,0,.54,0,.65-.39,0-.16.09-.64.09-.72C66.19,94.08,65.9,94.07,65.86,94.07Zm-.36-1.74Z" fill="#e8d6a8"/>
        <path d="M51.78,87c-.09,0-.29,0-.35.34s-.08.24-.13.26a1.84,1.84,0,0,1-.53.05c-.36,0-.44,0-.45,0s0,0,0-.23V85.9l.69,0c.08,0,.11,0,.1,0a.32.32,0,0,1,0,.14.33.33,0,0,0,.33.35c.06,0,.34,0,.34-.42,0,0,0-.28,0-.4s0-.22,0-.27,0-.11,0-.13l0-.35h-.29a.35.35,0,0,0-.29.17l-.15,0h-.8v-1.4h.64c.2,0,.25,0,.24.06a.37.37,0,0,1,0,.12.35.35,0,0,0,.34.38.34.34,0,0,0,.33-.31c0-.06,0-.22,0-.34v-.12a.78.78,0,0,1,0-.21.59.59,0,0,0,0-.14.32.32,0,0,0-.32-.35.37.37,0,0,0-.17,0l-.22,0H49a.35.35,0,0,0-.4.35.34.34,0,0,0,.34.33h.21a.24.24,0,0,1,0,.12c0,.2,0,.39,0,1.43v1.18c0,.62,0,1.15,0,1.41a1.13,1.13,0,0,1,0,.14H49a.33.33,0,0,0-.34.33.35.35,0,0,0,.4.34h.65c.1,0,.26,0,.52,0h.15l1,0c.26,0,.54,0,.64-.4a5.6,5.6,0,0,0,.1-.72A.33.33,0,0,0,51.78,87Zm-.24-1.67.13.08-.05,0-.09-.08Z" fill="#e8d6a8"/>
        <path d="M50.52,91.29a2.09,2.09,0,0,0,1,1.68l.3.25c.56.46.66.66.66,1a.61.61,0,0,1-.67.6c-.23,0-.63-.06-.71-.45a1.34,1.34,0,0,1,0-.19.33.33,0,0,0-.34-.36s-.3,0-.34.38v.07c0,.14,0,.38,0,.65a.49.49,0,0,0,.26.52h0a2.34,2.34,0,0,0,1,.21,2,2,0,0,0,1.17-.34,1.68,1.68,0,0,0,.7-1.34,2.21,2.21,0,0,0-1.09-1.81L52.24,92c-.64-.5-.71-.67-.71-.9a.48.48,0,0,1,.54-.49c.45,0,.56.17.58.2a1.2,1.2,0,0,1,.06.24.34.34,0,0,0,.34.34c.07,0,.33,0,.33-.45s0-.55,0-.64v-.07a.33.33,0,0,0-.36-.33l-.16,0a3.08,3.08,0,0,0-.7-.07A1.5,1.5,0,0,0,50.52,91.29Z" fill="#e8d6a8"/>
        <path d="M63.82,85.54a2.74,2.74,0,0,0-2.92-2.8A2.9,2.9,0,0,0,58,85.65a2.79,2.79,0,0,0,2.89,2.92A2.93,2.93,0,0,0,63.82,85.54Zm-4.63-.08c0-1.2.62-1.91,1.67-1.91.84,0,1.74.68,1.74,2.18,0,1.86-1.19,2-1.56,2C60,87.74,59.19,86.8,59.19,85.46Z" fill="#e8d6a8"/>
        <path d="M52.85,76.05H53a.26.26,0,0,1,0,.13c0,.2,0,.39,0,1.43v1.18c0,.62,0,1.15,0,1.41a.78.78,0,0,1,0,.14h-.08a.33.33,0,0,0-.35.33.36.36,0,0,0,.4.34l.56,0h.17l.75,0a.36.36,0,0,0,.4-.34.33.33,0,0,0-.35-.33,1.93,1.93,0,0,0-.25,0,.73.73,0,0,1,0-.13c0-.27,0-.8,0-1.42V77.61c0-1,0-1.23,0-1.43a.84.84,0,0,1,0-.12h.12a.34.34,0,0,0,.34-.33c0-.13-.08-.34-.4-.34H52.9a.35.35,0,0,0-.4.34A.34.34,0,0,0,52.85,76.05Z" fill="#e8d6a8"/>
        <path d="M47.64,90.23a.33.33,0,0,0,.34.33h.12a.3.3,0,0,1,0,.12c0,.21,0,.4,0,1.43V93.3c0,.62,0,1.16,0,1.42a.49.49,0,0,1,0,.13H48a.34.34,0,0,0-.34.33.35.35,0,0,0,.39.35l.56,0h.17l.75,0a.36.36,0,0,0,.4-.35.34.34,0,0,0-.34-.33,2.08,2.08,0,0,0-.25,0s0,0,0-.14c0-.26,0-.8,0-1.42V92.12c0-1,0-1.22,0-1.43a.42.42,0,0,1,0-.11l.11,0a.33.33,0,0,0,.34-.33.35.35,0,0,0-.39-.34l-.56,0h-.2l-.58,0A.35.35,0,0,0,47.64,90.23Z" fill="#e8d6a8"/>
        <path d="M48.83,69.08H49a1.13,1.13,0,0,1,0,.12c0,.21,0,.39,0,1.43v1.18c0,.62,0,1.15,0,1.41,0,.07,0,.11,0,.14h-.09a.33.33,0,0,0-.34.33.35.35,0,0,0,.39.34h.66l.52,0h.14l1,0c.26,0,.53,0,.64-.4A5.5,5.5,0,0,0,52,73c0-.38-.29-.39-.33-.39s-.28,0-.34.34-.09.24-.13.26a1.87,1.87,0,0,1-.53,0,1.27,1.27,0,0,1-.46,0,1,1,0,0,1,0-.23V71.47l.69,0a.19.19,0,0,1,.1,0,.61.61,0,0,1,0,.14.34.34,0,0,0,.34.35c.06,0,.34,0,.34-.42,0,0,0-.27,0-.4s0-.21,0-.27,0-.11,0-.13a.33.33,0,0,0-.33-.34.34.34,0,0,0-.28.16l-.16,0h-.79v-1.4h.64a.67.67,0,0,1,.24.06.39.39,0,0,1,0,.13.34.34,0,1,0,.67.06c0-.06,0-.21,0-.34v-.12a1.46,1.46,0,0,1,0-.2.77.77,0,0,0,0-.15.32.32,0,0,0-.31-.35.34.34,0,0,0-.17.05l-.23,0h-1.5l-.28,0h-.5a.34.34,0,0,0-.39.34A.34.34,0,0,0,48.83,69.08Zm2.51,1.75Z" fill="#e8d6a8"/>
      </g>
    </g>
  </g>
</svg>
